<svg width="66" height="72" viewBox="0 0 66 72" fill="none" xmlns="http://www.w3.org/2000/svg">
<path d="M10.1 67.5C8.30035 67.5 6.64957 67.0496 4.99979 66.1498C2.14957 64.5 0.499786 61.5 0.499786 58.3503V9.45025C0.499786 6.30047 2.14961 3.30047 4.99979 1.65068C7.99979 -0.148974 11.4502 -0.299662 14.4502 1.35102L60.9502 25.801C63.9502 27.4509 65.7498 30.4508 65.7498 33.9012C65.7498 37.3517 63.7994 40.5015 60.7994 42.1512L59.4492 39.4508C61.5494 38.4012 62.7488 36.301 62.7488 33.9012C62.7488 31.6512 61.5484 29.551 59.4492 28.5015L12.9492 4.05145C10.9997 3.00012 8.59983 3.00012 6.49962 4.35027C4.54927 5.55062 3.49962 7.50006 3.49962 9.60028V58.5003C3.49962 60.6004 4.69996 62.5498 6.49962 63.7503C8.59979 64.9506 10.9996 65.1004 12.95 64.0499L19.2496 60.7504L20.5998 63.4508L14.3002 66.7504C13.0999 67.2007 11.5998 67.5004 10.0998 67.5004L10.1 67.5Z" fill="black"/>
<path d="M42.2 72H39.8002C38.3002 72 36.95 70.7997 36.8002 69.2996L36.6504 66.8998C35.7506 66.6001 34.8507 66.2996 33.95 65.6994L32.1503 67.1994C30.95 68.2491 29.1503 68.0993 28.1007 67.0496L26.4509 65.3998C25.4012 64.3501 25.2506 62.5496 26.3011 61.3502L27.8011 59.5506C27.3507 58.6507 26.9012 57.7509 26.6007 56.8501L24.2009 56.7003C22.7009 56.5505 21.3507 55.3501 21.3507 53.7003V51.3005C21.3507 49.8005 22.5511 48.4503 24.2009 48.3005L26.6007 48.1507C26.9004 47.2508 27.2009 46.351 27.8011 45.4502L26.3011 43.6506C25.2514 42.4502 25.4012 40.6506 26.4509 39.601L28.1007 37.9512C29.1504 36.9015 30.9509 36.7508 32.1503 37.8014L33.95 39.3014C34.8498 38.851 35.7496 38.4015 36.6504 38.101L36.8002 35.7012C36.9501 34.2012 38.1504 33.0008 39.8002 33.0008H42.2C43.7 33.0008 45.0502 34.2011 45.2 35.7012L45.3498 38.101C46.2497 38.4007 47.1495 38.7012 48.0503 39.3014L49.8499 37.8014C51.0503 36.7517 52.8499 36.9015 53.8995 37.9512L55.5493 39.601C56.599 40.6507 56.7497 42.4512 55.6992 43.6506L54.1992 45.4502C54.6495 46.3501 55.099 47.2499 55.3995 48.1507L57.7993 48.3005C59.2993 48.4503 60.6495 49.6507 60.6495 51.3005V53.7003C60.6495 55.2003 59.4492 56.5505 57.7993 56.7003L55.3995 56.8501C55.0998 57.75 54.7993 58.6498 54.1992 59.5506L55.6992 61.3502C56.7488 62.5506 56.599 64.3502 55.5493 65.3998L53.8995 67.0496C52.8498 68.0993 51.0493 68.25 49.8499 67.1994L48.0503 65.6994C47.1504 66.1498 46.2506 66.5993 45.3498 66.8998L45.2 69.2996C45.0493 70.7996 43.7 72 42.2 72ZM33.6496 61.9504L34.5494 62.5506C35.7497 63.3006 37.099 63.9008 38.4492 64.2004L39.4997 64.5001L39.7993 69.0001H42.1991L42.4988 64.5001L43.5484 64.2004C44.8986 63.9008 46.2489 63.3006 47.4482 62.5506L48.3481 61.9504L51.7985 64.9504L53.4483 63.3006L50.4483 59.8502L51.0485 58.9503C51.7985 57.75 52.3987 56.4008 52.6983 55.0506L52.9996 54.0001L57.4996 53.7004V51.3006L52.9996 51.0001L52.7 49.9505C52.4003 48.6003 51.8002 47.25 51.0502 46.0507L50.45 45.1509L53.45 41.7004L51.8002 40.0506L48.3497 43.0506L47.4499 42.4504C46.2496 41.7004 44.9003 41.1003 43.5501 40.8006L42.4996 40.5001L42.2 36.0001H39.8002L39.4997 40.5001L38.45 40.7998C37.0999 41.0994 35.7496 41.6996 34.5502 42.4496L33.6504 43.0498L30.2 40.0498L28.5502 41.6996L31.5502 45.15L30.95 46.0498C30.2 47.2502 29.5998 48.5994 29.3002 49.9496L28.9997 51.0001L24.4997 51.2998V53.6996L28.9997 53.9992L29.2993 55.0489C29.599 56.3991 30.1992 57.7493 30.9492 58.9487L31.5493 59.8485L28.5493 63.2989L30.1992 64.9488L33.6496 61.9504Z" fill="black"/>
<path d="M41 59.1C37.3998 59.1 34.3998 56.1 34.3998 52.4998C34.3998 48.8996 37.3998 45.8996 41 45.8996C44.6002 45.8996 47.6002 48.8996 47.6002 52.4998C47.6002 56.1 44.6002 59.1 41 59.1ZM41 48.8996C39.0497 48.8996 37.3998 50.5494 37.3998 52.4998C37.3998 54.4502 39.0496 56.1 41 56.1C42.9504 56.1 44.6002 54.4502 44.6002 52.4998C44.6002 50.5494 42.9504 48.8996 41 48.8996Z" fill="black"/>
</svg>
